<svg width="36" height="26" viewBox="0 0 36 26" fill="none" xmlns="http://www.w3.org/2000/svg">
<path d="M33.5313 5.86639C32.9708 5.53971 32.3335 5.36783 31.6847 5.36825H14.6487C13.7018 5.36562 12.8607 4.76345 12.553 3.86803L12.4278 3.46426C11.9207 1.96336 10.5149 0.951471 8.93068 0.947188H3.68425C3.05113 0.94104 2.4281 1.10545 1.88043 1.42322C0.718986 2.07319 -0.000345276 3.3004 1.24332e-07 4.63144V22.316C1.24332e-07 24.3507 1.6495 26.0002 3.68425 26.0002H31.6847C33.7195 26.0002 35.369 24.3507 35.369 22.316V9.05257C35.3735 7.73742 34.6719 6.52106 33.5313 5.86639Z" fill="#567DF4"/>
</svg>
