<svg width="33" height="10" viewBox="0 0 33 10" fill="none" xmlns="http://www.w3.org/2000/svg">
<path d="M29.211 5.01054e-06H4.15799C2.12814 -0.00331084 0.479883 1.63955 0.476568 3.66947C0.476291 3.83464 0.487137 3.99961 0.509104 4.16326C0.561329 4.56682 0.930839 4.85164 1.33447 4.79942C1.43278 4.78671 1.52748 4.75431 1.61294 4.70409C1.93803 4.51495 2.30823 4.4172 2.6843 4.42113H7.93073C8.87754 4.42376 9.71873 5.02593 10.0263 5.92135L10.1516 6.32512C10.6586 7.82603 12.0645 8.83791 13.6487 8.84219H30.6848C31.0712 8.84254 31.4507 8.94416 31.7856 9.13696C31.8988 9.20293 32.0275 9.23747 32.1585 9.23719C32.5654 9.23719 32.8953 8.90727 32.8953 8.50032V3.68426C32.8953 1.6495 31.2458 5.01054e-06 29.211 5.01054e-06Z" fill="#415EB6"/>
</svg>
